Simulation
nRows=36
nColumns=15
endheader
time  TH_x TH_y TH_z SC_y  SC_z  SC_x  AC_y  AC_z  AC_x  GH_y  GH_z  GH_yy  EL_x  PS_y
0.0  0.000000  0.000000  0.000000  -28.161945024326204  -1.0558655174005567  6.508949940229804  55.81038587732647  -0.7006399067135383  -10.507942332897358  33.08815182915049  4.621005853306145  7.635194723474273  26.85912787138124  0.000000
0.039  0.000000  0.000000  0.000000  -28.143404280351945  -0.7116485128814204  6.4719327939468325  55.73637463686889  -0.22155390821083223  -10.392076736452195  30.749321721713752  4.578186940016506  9.950486785154073  26.394359421736695  0.000000
0.078  0.000000  0.000000  0.000000  -28.08044315990463  -0.4199976669379672  6.451092957047569  55.715852120283586  0.11306353759456654  -10.184506209042501  28.837149424966487  4.483460125673509  11.845505566148104  25.83759866089562  0.000000
0.11699999999999999  0.000000  0.000000  0.000000  -28.072090620202186  -0.18655073612510253  6.394181518531025  55.6985875473994  0.3352601870774179  -9.924790969054364  27.459701656785576  4.5183627890021105  13.08326240646239  25.35411375352612  0.000000
0.156  0.000000  0.000000  0.000000  -28.04064317450379  -0.018388510720888547  6.300355260685512  55.677249725016736  0.4903293915434205  -9.662457130703924  26.928468735703177  4.754334251798827  13.333515205625485  24.998922658985162  0.000000
0.195  0.000000  0.000000  0.000000  -27.99423306489972  0.08517846940255254  6.180054822157212  55.66130379183952  0.6102547100294743  -9.417416434669322  27.487771092965424  5.239616080031706  12.338476636177495  24.757946365824747  0.000000
0.23399999999999999  0.000000  0.000000  0.000000  -27.9143283711495  0.12171633448442355  6.047118325398919  55.65322294958206  0.7424876174405528  -9.22833175234313  29.104062377240766  5.993053188355948  10.107137586413446  24.62949014355132  0.000000
0.273  0.000000  0.000000  0.000000  -27.799075367662724  0.10149332974054706  5.919420402419146  55.65817340498109  0.9148839257446425  -9.101308948791269  31.352562033707034  7.02673189320086  7.070673330004481  24.58883167878986  0.000000
0.312  0.000000  0.000000  0.000000  -27.639756738708797  0.03712399201485478  5.811866025934946  55.672892191687026  1.1517632916254896  -9.03574422557764  33.883928268571495  8.338006383671612  3.5747475220702802  24.624745422196696  0.000000
0.351  0.000000  0.000000  0.000000  -27.43528877194373  -0.047347634890266256  5.735251948562531  55.69924693933283  1.4605912257332414  -9.011381462161694  36.54764936336992  9.92452002252098  -0.2276710942473794  24.710277954408845  0.000000
0.39  0.000000  0.000000  0.000000  -27.189333667948887  -0.11908657208156095  5.70414602896106  55.73496234931715  1.8455679672677614  -8.98626401929401  39.27067908494707  11.776781824442239  -4.2477146080361114  24.84566311555734  0.000000
0.429  0.000000  0.000000  0.000000  -26.924660879842065  -0.13876869545862208  5.734692983045308  55.82384895165882  2.2736499241968824  -8.845628937616894  41.749451768880824  13.86722748669212  -8.17832230983541  24.997983042078697  0.000000
0.46799999999999997  0.000000  0.000000  0.000000  -26.726783666954336  -0.03899952268291816  5.844196119740948  55.98938734748586  2.679101413300748  -8.431925019796191  43.775395861731354  16.137272351613895  -11.789360621826043  25.168058970471098  0.000000
0.507  0.000000  0.000000  0.000000  -26.662018910721336  0.2138525474388113  5.964590807838362  56.42035097000642  3.0036179635556457  -7.641561617881363  45.08232264774435  18.55367072185463  -14.842997180100607  25.298929899006993  0.000000
0.546  0.000000  0.000000  0.000000  -26.68133858882216  0.550904905050793  6.070317978318047  57.23758352188627  3.247990258250678  -6.56217936701124  45.64054600290567  21.034999261721204  -17.330546783757804  25.314234649469014  0.000000
0.585  0.000000  0.000000  0.000000  -26.751485609921335  0.8963419540027159  6.229454328254714  58.18659817455297  3.490313347595177  -5.444343632045707  46.089924538485185  23.522569185436414  -19.785194903342976  25.29210771574966  0.000000
0.624  0.000000  0.000000  0.000000  -26.826448943308066  1.2303614007114245  6.46125054258949  59.02904216120313  3.7981716310403444  -4.4618660784548165  46.83191468163512  26.019083673452652  -22.54769249701383  25.277757232132597  0.000000
0.663  0.000000  0.000000  0.000000  -26.869992285824104  1.5563727415147577  6.7633845628835765  59.73168622821765  4.174805596256389  -3.6271130680099115  47.711970078933106  28.504085449329523  -25.427471489009566  25.249950967623214  0.000000
0.702  0.000000  0.000000  0.000000  -26.87809835029603  1.888203828782856  7.127676969982999  60.299259845272175  4.598560002259783  -2.8978476499489547  48.56244480815129  30.952257971996648  -28.236952714534556  25.203096522779198  0.000000
0.741  0.000000  0.000000  0.000000  -26.864376425324572  2.2382548575059973  7.542344635991398  60.75429076336999  5.051515356868224  -2.236760672655898  49.30650514429962  33.345982872647625  -30.88431998679844  25.137222072478654  0.000000
0.78  0.000000  0.000000  0.000000  -26.847343511775094  2.616917276417023  7.993651627708312  61.11321239458107  5.518770162824236  -1.608925752826621  49.91706279985603  35.66810252979512  -33.32136889931061  25.062944312245836  0.000000
0.819  0.000000  0.000000  0.000000  -26.84377348302424  3.0296367285032137  8.467629891585487  61.392438778995526  5.992002045676691  -0.9904185974567647  50.3958690574477  37.90515114228942  -35.529685953761145  24.988005782952794  0.000000
0.858  0.000000  0.000000  0.000000  -26.86716596205946  3.4782473253005532  8.951177710929244  61.604182924889855  6.4678773327929235  -0.3629199925162721  50.75137930740766  40.04348751734427  -37.49786924401175  24.920615222096703  0.000000
0.897  0.000000  0.000000  0.000000  -26.929070122142942  3.961202368945134  9.433326026852493  61.75946196051059  6.946468578657096  0.28389240776380265  50.99466803802422  42.07181456950836  -39.23031545680519  24.862419287402844  0.000000
0.9359999999999999  0.000000  0.000000  0.000000  -27.0376537443182  4.475119671916768  9.893773403729126  61.86688111672702  7.441901456565833  0.9628248298066997  51.13657554030621  43.98165897518033  -40.73737452424497  24.811820042098443  0.000000
0.975  0.000000  0.000000  0.000000  -27.195703642453125  5.015622209740205  10.317817617917663  61.93553633987096  7.970197797628785  1.6866649267549665  51.191137755389185  45.768427888665364  -42.03698059533058  24.765573070954407  0.000000
1.014  0.000000  0.000000  0.000000  -27.40362218266278  5.5794536622263  10.709920108377435  61.975092414487214  8.530833356011238  2.4625379898492055  51.174564233978806  47.43084747997003  -43.14945268618709  24.71979580082567  0.000000
1.053  0.000000  0.000000  0.000000  -27.66322361569849  6.167195974894755  11.08193566685209  61.99403621167709  9.114444174777429  3.2906383843135525  51.102374765886836  48.96836938823568  -44.09605719439857  24.671221963852986  0.000000
1.092  0.000000  0.000000  0.000000  -27.97504505109971  6.77376138292843  11.443985165002893  61.99765445747207  9.711196918483243  4.165592105043615  50.98517194481427  50.380176394845456  -44.89482387552738  24.617089227299434  0.000000
1.131  0.000000  0.000000  0.000000  -28.337447450399022  7.390667777056231  11.807240652367  61.990674664595076  10.30881463124305  5.076013848623685  50.83179127013087  51.66651996272392  -45.562752088006356  24.55307600831986  0.000000
1.17  0.000000  0.000000  0.000000  -28.743256160682392  8.007355733039365  12.183059023658798  61.977208038664045  10.892838760355513  6.005332281926374  50.64807416572773  52.829060478494334  -46.112735730686545  24.475107473533487  0.000000
1.209  0.000000  0.000000  0.000000  -29.181442979145366  8.608339793072723  12.581934551364494  61.96245652960488  11.448787790505243  6.932720076925074  50.4372430663346  53.86996870838931  -46.55491021083934  24.378687330957426  0.000000
1.248  0.000000  0.000000  0.000000  -29.640739933012135  9.177311322437681  13.004601819302449  61.95329020827123  11.968067890781708  7.839321674554558  50.20226159332285  54.79394017403307  -46.89899333146053  24.25994218910366  0.000000
1.287  0.000000  0.000000  0.000000  -30.11072262277235  9.702971919249617  13.436123519203873  61.95465358195019  12.456378248193078  8.71797421595774  49.947726497157525  55.60529690072168  -47.15285874417508  24.114675335346224  0.000000
1.326  0.000000  0.000000  0.000000  -30.582564583302876  10.18278565324417  13.863656785905516  61.971070812025474  12.91666364754396  9.566014924901872  49.68217343067476  56.310292149299585  -47.32529601382746  23.938590584299938  0.000000
1.365  0.000000  0.000000  0.000000  -31.05157412518027  10.616068232626104  14.28805976380673  62.00929623063589  13.337818735014732  10.373903820704784  49.417523740075005  56.91715719550061  -47.42837216839608  23.730069613172336  0.000000
